<svg width="51" height="38" viewBox="0 0 51 38" fill="none" xmlns="http://www.w3.org/2000/svg">
<g filter="url(#filter0_d)">
<ellipse rx="20.0208" ry="3.53309" transform="matrix(0.958578 0.28483 -0.311239 0.950332 23.7845 23.2863)" fill="#C4C4C4"/>
<ellipse rx="20.0208" ry="3.53309" transform="matrix(0.958578 0.28483 -0.311239 0.950332 23.7845 23.2863)" fill="url(#paint0_linear)"/>
<path d="M8.0481 4.8045L46.4883 16.0528L43.0676 28.8188L4.62745 17.5705L8.0481 4.8045Z" fill="url(#paint1_linear)"/>
<ellipse rx="20.0208" ry="4.71078" transform="matrix(0.95526 0.295767 -0.29576 0.955262 26.9577 10.5153)" fill="white"/>
<ellipse rx="16.7239" ry="3.98188" transform="matrix(0.95526 0.295767 -0.29576 0.955262 26.9716 10.5153)" fill="#EA5600"/>
<path d="M29.6853 14.4609C30.059 13.9232 29.6399 13.3423 28.6375 13.0066C27.1349 12.4694 24.9734 12.9435 23.5559 13.4519L21.5749 12.5262L20.2807 13.0758L22.2443 13.9933L21.3753 14.3623L19.4117 13.4447L18.1175 13.9943L20.0811 14.9118L17.4741 16.0187L18.7395 16.61L19.7102 16.1979C20.1447 16.0134 20.4795 15.9802 20.8111 16.1352L26.248 18.6757C26.7017 18.8878 26.601 19.0551 26.3422 19.165L25.353 19.585L26.6446 20.1885L29.1591 19.1209L31.1663 20.0588L32.4698 19.5053L30.4626 18.5674L31.3316 18.1985L33.3388 19.1364L34.6053 18.5986L32.5981 17.6607L32.8754 17.5429C35.5379 16.4125 35.1949 15.4607 33.5193 14.6777C32.5101 14.2251 30.9344 14.136 29.6853 14.4609ZM22.7192 14.9903L23.6436 14.5978C24.2908 14.323 25.6713 13.8303 26.6661 14.2952C27.3598 14.5797 27.4305 15.0572 26.8293 15.3856L25.1191 16.1117L22.7192 14.9903ZM30.4355 17.318L30.4268 17.3139L28.9939 17.9223L26.3758 16.6989L28.0398 15.9924C28.4281 15.8275 30.0109 15.2645 30.9883 15.7212C31.9657 16.1779 31.8222 16.7292 30.4355 17.318Z" fill="white"/>
</g>
<defs>
<filter id="filter0_d" x="0.390381" y="3.07751" width="50.335" height="34.8274" filterUnits="userSpaceOnUse" color-interpolation-filters="sRGB">
<feFlood flood-opacity="0" result="BackgroundImageFix"/>
<feColorMatrix in="SourceAlpha" type="matrix" values="0 0 0 0 0 0 0 0 0 0 0 0 0 0 0 0 0 0 127 0" result="hardAlpha"/>
<feOffset dy="4"/>
<feGaussianBlur stdDeviation="2"/>
<feComposite in2="hardAlpha" operator="out"/>
<feColorMatrix type="matrix" values="0 0 0 0 0 0 0 0 0 0 0 0 0 0 0 0 0 0 0.2 0"/>
<feBlend mode="normal" in2="BackgroundImageFix" result="effect1_dropShadow"/>
<feBlend mode="normal" in="SourceGraphic" in2="effect1_dropShadow" result="shape"/>
</filter>
<linearGradient id="paint0_linear" x1="-0.538157" y1="3.7948" x2="38.817" y2="10.6989" gradientUnits="userSpaceOnUse">
<stop stop-color="#23282D"/>
<stop offset="1" stop-color="#676F76"/>
</linearGradient>
<linearGradient id="paint1_linear" x1="5.56394" y1="11.9962" x2="43.5349" y2="25.8262" gradientUnits="userSpaceOnUse">
<stop stop-color="#23282D"/>
<stop offset="1" stop-color="#676F76"/>
</linearGradient>
</defs>
</svg>
